<svg width="1769" height="887" viewBox="0 0 1769 887" fill="none" xmlns="http://www.w3.org/2000/svg">
<path d="M0 872.728V0.000240326H376.705C441.477 0.000240326 498.153 11.79 546.733 35.3696C595.313 58.9491 633.097 92.898 660.085 137.216C687.074 181.534 700.568 234.659 700.568 296.591C700.568 359.091 686.648 411.79 658.807 454.688C631.25 497.585 592.472 529.972 542.472 551.847C492.756 573.722 434.659 584.659 368.182 584.659H143.182V400.568H320.455C348.295 400.568 372.017 397.159 391.619 390.341C411.506 383.239 426.705 372.017 437.216 356.676C448.011 341.335 453.409 321.307 453.409 296.591C453.409 271.591 448.011 251.279 437.216 235.654C426.705 219.745 411.506 208.097 391.619 200.71C372.017 193.04 348.295 189.205 320.455 189.205H236.932V872.728H0ZM511.364 472.159L729.545 872.728H472.159L259.091 472.159H511.364ZM1104.55 884.659C1034.66 884.659 974.432 871.307 923.864 844.603C873.58 817.614 834.801 778.978 807.528 728.693C780.54 678.125 767.045 617.614 767.045 547.159C767.045 479.546 780.682 420.455 807.955 369.887C835.227 319.318 873.722 279.972 923.438 251.847C973.153 223.722 1031.82 209.659 1099.43 209.659C1148.86 209.659 1193.61 217.33 1233.66 232.671C1273.72 248.012 1307.95 270.313 1336.36 299.574C1364.77 328.551 1386.65 363.779 1401.99 405.256C1417.33 446.733 1425 493.466 1425 545.455V600H840.341V470.455H1208.52C1208.24 451.705 1203.41 435.228 1194.03 421.023C1184.94 406.534 1172.59 395.313 1156.96 387.358C1141.62 379.12 1124.15 375 1104.55 375C1085.51 375 1068.04 379.12 1052.13 387.358C1036.22 395.313 1023.44 406.392 1013.78 420.597C1004.4 434.801 999.432 451.421 998.864 470.455V610.228C998.864 631.25 1003.27 650 1012.07 666.478C1020.88 682.955 1033.52 695.881 1050 705.256C1066.48 714.631 1086.36 719.318 1109.66 719.318C1125.85 719.318 1140.63 717.046 1153.98 712.5C1167.61 707.955 1179.26 701.421 1188.92 692.898C1198.58 684.091 1205.68 673.58 1210.23 661.364H1425C1417.61 706.818 1400.14 746.307 1372.59 779.83C1345.03 813.068 1308.52 838.921 1263.07 857.387C1217.9 875.568 1165.06 884.659 1104.55 884.659ZM1648.83 886.364C1615.87 886.364 1587.61 874.858 1564.03 851.847C1540.73 828.551 1529.23 800.284 1529.51 767.046C1529.23 734.659 1540.73 706.96 1564.03 683.949C1587.61 660.938 1615.87 649.432 1648.83 649.432C1680.08 649.432 1707.63 660.938 1731.5 683.949C1755.65 706.96 1767.86 734.659 1768.15 767.046C1767.86 789.205 1762.04 809.375 1750.67 827.557C1739.6 845.455 1725.11 859.801 1707.21 870.597C1689.31 881.108 1669.85 886.364 1648.83 886.364Z" fill="white"/>
</svg>
