<svg width="135" height="31" viewBox="0 0 135 31" fill="none" xmlns="http://www.w3.org/2000/svg">
<path d="M0.875 30V0.90909H13.4318C15.5909 0.90909 17.4801 1.30208 19.0994 2.08807C20.7188 2.87405 21.9782 4.00568 22.8778 5.48295C23.7775 6.96023 24.2273 8.73106 24.2273 10.7955C24.2273 12.8788 23.7633 14.6354 22.8352 16.0653C21.9167 17.4953 20.6241 18.5748 18.9574 19.304C17.3002 20.0331 15.3636 20.3977 13.1477 20.3977H5.64773V14.2614H11.5568C12.4848 14.2614 13.2756 14.1477 13.929 13.9205C14.5919 13.6837 15.0985 13.3097 15.4489 12.7983C15.8087 12.2869 15.9886 11.6193 15.9886 10.7955C15.9886 9.96212 15.8087 9.28504 15.4489 8.7642C15.0985 8.2339 14.5919 7.84564 13.929 7.59943C13.2756 7.34375 12.4848 7.21591 11.5568 7.21591H8.77273V30H0.875ZM17.9205 16.6477L25.1932 30H16.6136L9.51136 16.6477H17.9205ZM37.6932 30.3977C35.3636 30.3977 33.3561 29.9527 31.6705 29.0625C29.9943 28.1629 28.7017 26.875 27.7926 25.1989C26.893 23.5133 26.4432 21.4962 26.4432 19.1477C26.4432 16.8939 26.8977 14.9242 27.8068 13.2386C28.7159 11.553 29.9991 10.2415 31.6562 9.30398C33.3134 8.36648 35.2689 7.89773 37.5227 7.89773C39.1705 7.89773 40.6619 8.15341 41.9972 8.66477C43.3324 9.17614 44.4735 9.91951 45.4205 10.8949C46.3674 11.8608 47.0966 13.035 47.608 14.4176C48.1193 15.8002 48.375 17.358 48.375 19.0909V20.9091H28.8864V16.5909H41.1591C41.1496 15.9659 40.9886 15.4167 40.6761 14.9432C40.3731 14.4602 39.9612 14.0862 39.4403 13.821C38.929 13.5464 38.3466 13.4091 37.6932 13.4091C37.0587 13.4091 36.4763 13.5464 35.946 13.821C35.4157 14.0862 34.9896 14.4555 34.6676 14.929C34.3551 15.4025 34.1894 15.9564 34.1705 16.5909V21.25C34.1705 21.9508 34.3172 22.5758 34.6108 23.125C34.9044 23.6742 35.3258 24.1051 35.875 24.4176C36.4242 24.7301 37.0871 24.8864 37.8636 24.8864C38.4034 24.8864 38.8958 24.8106 39.3409 24.6591C39.7955 24.5076 40.1837 24.2898 40.5057 24.0057C40.8277 23.7121 41.0644 23.3617 41.2159 22.9545H48.375C48.1288 24.4697 47.5464 25.786 46.6278 26.9034C45.7093 28.0114 44.4924 28.8731 42.9773 29.4886C41.4716 30.0947 39.7102 30.3977 37.6932 30.3977ZM55.8359 30.4545C54.7375 30.4545 53.7952 30.071 53.0092 29.304C52.2327 28.5275 51.8492 27.5852 51.8587 26.4773C51.8492 25.3977 52.2327 24.4744 53.0092 23.7074C53.7952 22.9403 54.7375 22.5568 55.8359 22.5568C56.8776 22.5568 57.7962 22.9403 58.5916 23.7074C59.3965 24.4744 59.8037 25.3977 59.8132 26.4773C59.8037 27.2159 59.6096 27.8883 59.2308 28.4943C58.8615 29.0909 58.3786 29.5691 57.782 29.929C57.1854 30.2794 56.5367 30.4545 55.8359 30.4545ZM78.2223 20.4545V8.18182H86.0632V30H78.62V25.8523H78.3928C77.9193 27.2443 77.0907 28.3333 75.907 29.1193C74.7232 29.8958 73.317 30.2841 71.6882 30.2841C70.1636 30.2841 68.8284 29.9337 67.6825 29.233C66.5462 28.5322 65.6607 27.5663 65.0263 26.3352C64.4013 25.1042 64.084 23.6932 64.0746 22.1023V8.18182H71.9155V20.4545C71.925 21.5341 72.1996 22.3816 72.7393 22.9972C73.2886 23.6127 74.0556 23.9205 75.0405 23.9205C75.6939 23.9205 76.2573 23.7831 76.7308 23.5085C77.2138 23.2244 77.5831 22.8267 77.8388 22.3153C78.1039 21.7945 78.2318 21.1742 78.2223 20.4545ZM109.994 15.2841H102.778C102.741 14.839 102.584 14.4555 102.31 14.1335C102.035 13.8116 101.68 13.5653 101.244 13.3949C100.818 13.215 100.345 13.125 99.8239 13.125C99.1515 13.125 98.5739 13.2481 98.0909 13.4943C97.608 13.7405 97.3712 14.0909 97.3807 14.5455C97.3712 14.8674 97.5085 15.1657 97.7926 15.4403C98.0862 15.715 98.6496 15.928 99.483 16.0795L103.915 16.875C106.15 17.2822 107.812 17.9687 108.901 18.9347C109.999 19.8911 110.553 21.1742 110.562 22.7841C110.553 24.3371 110.089 25.6866 109.17 26.8324C108.261 27.9687 107.016 28.8494 105.435 29.4744C103.863 30.09 102.068 30.3977 100.051 30.3977C96.7178 30.3977 94.1089 29.7159 92.2244 28.3523C90.3494 26.9886 89.303 25.1894 89.0852 22.9545H96.8693C96.9735 23.6458 97.3144 24.1809 97.892 24.5597C98.4792 24.929 99.2178 25.1136 100.108 25.1136C100.828 25.1136 101.42 24.9905 101.884 24.7443C102.357 24.4981 102.598 24.1477 102.608 23.6932C102.598 23.2765 102.39 22.9451 101.983 22.6989C101.585 22.4527 100.96 22.2538 100.108 22.1023L96.2443 21.4205C94.0189 21.0322 92.3523 20.2936 91.2443 19.2045C90.1364 18.1155 89.5871 16.714 89.5966 15C89.5871 13.4848 89.9848 12.2017 90.7898 11.1506C91.6042 10.09 92.7642 9.28504 94.2699 8.7358C95.785 8.17708 97.5795 7.89773 99.6534 7.89773C102.807 7.89773 105.293 8.55114 107.111 9.85795C108.938 11.1648 109.9 12.9735 109.994 15.2841ZM124.021 30.3977C121.692 30.3977 119.684 29.9527 117.999 29.0625C116.322 28.1629 115.03 26.875 114.121 25.1989C113.221 23.5133 112.771 21.4962 112.771 19.1477C112.771 16.8939 113.226 14.9242 114.135 13.2386C115.044 11.553 116.327 10.2415 117.984 9.30398C119.642 8.36648 121.597 7.89773 123.851 7.89773C125.499 7.89773 126.99 8.15341 128.325 8.66477C129.661 9.17614 130.802 9.91951 131.749 10.8949C132.696 11.8608 133.425 13.035 133.936 14.4176C134.447 15.8002 134.703 17.358 134.703 19.0909V20.9091H115.214V16.5909H127.487C127.478 15.9659 127.317 15.4167 127.004 14.9432C126.701 14.4602 126.289 14.0862 125.768 13.821C125.257 13.5464 124.675 13.4091 124.021 13.4091C123.387 13.4091 122.804 13.5464 122.274 13.821C121.744 14.0862 121.318 14.4555 120.996 14.929C120.683 15.4025 120.518 15.9564 120.499 16.5909V21.25C120.499 21.9508 120.645 22.5758 120.939 23.125C121.232 23.6742 121.654 24.1051 122.203 24.4176C122.752 24.7301 123.415 24.8864 124.192 24.8864C124.732 24.8864 125.224 24.8106 125.669 24.6591C126.124 24.5076 126.512 24.2898 126.834 24.0057C127.156 23.7121 127.393 23.3617 127.544 22.9545H134.703C134.457 24.4697 133.875 25.786 132.956 26.9034C132.037 28.0114 130.821 28.8731 129.305 29.4886C127.8 30.0947 126.038 30.3977 124.021 30.3977Z" fill="black"/>
</svg>
